<?xml version="1.0" encoding="utf-8"?>
<!-- Generator: Adobe Illustrator 25.4.1, SVG Export Plug-In . SVG Version: 6.00 Build 0)  -->
<svg version="1.1" id="Capa_1" xmlns="http://www.w3.org/2000/svg" xmlns:xlink="http://www.w3.org/1999/xlink" x="0px" y="0px"
	 viewBox="0 0 1000 1000" style="enable-background:new 0 0 1000 1000;" xml:space="preserve">
<style type="text/css">
	.st0{fill:#FFFFFF;}
	.st1{fill:#52136E;}
	.st2{fill:#78A6FC;}
	.st3{fill:#E274F1;}
</style>
<rect x="0.4" y="2.7" class="st0" width="1000" height="1000"/>
<rect x="207" y="114.8" class="st1" width="589.7" height="771.9"/>
<g>
	<g>
		<g>
			<path class="st2" d="M750.7,162c-30.5-0.4-61.1-0.1-91.6-0.2c-135.9,0-271.9-0.1-407.8,0c0.1,227.3-0.1,454.5,0,681.7
				c35.7-0.1,71.4,0.2,107.1-0.1c-0.3-46.8,0-93.7-0.1-140.5c0.1-56.3,0-112.6,0.1-168.8c39.2-0.2,78.5-0.1,117.7-0.1
				c50.3,0.1,100.6-0.2,150.9,0.1c0.2-37.1,0.1-74.1,0-111.2c-38.6,0-77.3,0-115.9,0c-50.8,0.1-101.7-0.2-152.5,0.2
				c-0.5-15.3,0-30.8-0.2-46.2c0-34.6,0-69.3,0-103.9c21.2-0.4,42.4-0.1,63.6-0.2c58.7,0,117.4,0,176.1,0
				c50.9-0.1,101.7,0.2,152.6-0.1C750.6,235.8,750.5,198.9,750.7,162z"/>
		</g>
	</g>
	<g>
		<g>
			<path class="st3" d="M750.6,292.5c-124.3,0-248.7,0.1-373,0c-0.2,37,0,74.1-0.1,111.1c88.6,0,177.3,0,266,0
				c0,50.1,0.1,100.2,0,150.3c-88.7-0.1-177.3,0.1-265.9-0.1c-0.4,37-0.1,74-0.2,111c88.7,0.1,177.4,0.1,266.1,0
				c0,59.6,0,119.1,0,178.7c35.7,0,71.4,0,107.1,0C750.6,659.8,750.7,476.2,750.6,292.5z"/>
		</g>
	</g>
	<g>
		<g>
			<path class="st0" d="M495.5,698.6c-8.9,0.4-17.8,0-26.7,0.2c-0.6,9.1-0.2,18.4-0.1,27.5c9-0.5,18.1-0.1,27.1-0.2
				C495.6,716.9,496.2,707.7,495.5,698.6z"/>
		</g>
	</g>
	<g>
		<g>
			<path class="st0" d="M538.3,698.7c-9.1,0-18.2,0.1-27.3,0c0.1,9.2,0.1,18.3,0,27.4c9.1-0.2,18.2-0.1,27.3-0.1
				C538.3,716.9,538.4,707.8,538.3,698.7z"/>
		</g>
	</g>
	<g>
		<g>
			<path class="st0" d="M462,726c-9.2,0.1-18.4-0.2-27.5,0.2c0.5,9,0.2,18.1,0.1,27c9.1,0.3,18.2-0.1,27.3,0.2
				C462.2,744.3,462.1,735.1,462,726z"/>
		</g>
	</g>
	<g>
		<g>
			<path class="st0" d="M570.7,726.1c-9.5-0.1-18.9-0.2-28.3,0c0.2,0.3,0.7,1,0.9,1.3c0.3,8.7-0.3,17.4,0.3,26.1
				c9-0.3,18-0.1,27-0.1C570.8,744.3,570.7,735.2,570.7,726.1z"/>
		</g>
	</g>
	<g>
		<g>
			<path class="st0" d="M556.9,788.3c-4.2,0.1-8.3,0-12.5,0.1c-0.3-4.9-0.2-9.9-0.2-14.8c-4.7,0-9.4,0-14.2,0
				c-0.2-4.4-0.1-8.8,0-13.1c-18.2-0.1-36.5-0.4-54.7-0.3c-0.1,4.3,0.1,8.6-0.1,12.9c-4.6,0.9-9.4,0.1-14.1,0.3
				c0,4.9,0.1,9.8-0.1,14.7c-4.3-0.1-8.5-0.1-12.8,0.1c-0.2,10.2-0.1,20.5-0.1,30.7c0,3.5-0.2,7,0.4,10.5c4.5-0.5,9-0.2,13.5-0.3
				c0.1,4.9,0,9.8,0.1,14.7c9.2,0,18.3,0.1,27.5-0.1c0-4.9-0.2-9.7,0.1-14.6c8.7,0.1,17.4,0,26.1,0.1c0.2,4.8-0.2,9.6,0.1,14.4
				c9.2-0.3,18.3,0.2,27.4-0.2c-0.2-4.7-0.2-9.5-0.1-14.2c4.6-0.1,9.2-0.1,13.7,0C557,815.5,557,801.9,556.9,788.3z"/>
		</g>
	</g>
</g>
</svg>
