<?xml version="1.0" encoding="utf-8"?>
<!-- Generator: Adobe Illustrator 25.4.1, SVG Export Plug-In . SVG Version: 6.00 Build 0)  -->
<svg version="1.1" id="Capa_1" xmlns="http://www.w3.org/2000/svg" xmlns:xlink="http://www.w3.org/1999/xlink" x="0px" y="0px"
	 viewBox="0 0 1000 1000" style="enable-background:new 0 0 1000 1000;" xml:space="preserve">
<style type="text/css">
	.st0{fill:#52136E;}
	.st1{fill:#FFFFFF;}
	.st2{fill:url(#SVGID_1_);}
	.st3{fill:url(#SVGID_00000150087738420549477810000004569480352781053072_);}
	.st4{fill:url(#SVGID_00000085961316010014324650000008593223190582003350_);}
	.st5{fill:url(#SVGID_00000059289428107511798230000015232069260916022164_);}
	.st6{fill:url(#SVGID_00000026857100984798892030000001578006074010769320_);}
	.st7{fill:url(#SVGID_00000049931148527386237040000005741374726853497739_);}
	.st8{fill:url(#SVGID_00000158009046413155310950000014012656894380705974_);}
</style>
<rect x="0.4" y="2.7" class="st0" width="1000" height="1000"/>
<rect x="207" y="114.8" class="st1" width="589.7" height="771.9"/>
<g>
	<g>
		<g>
			
				<linearGradient id="SVGID_1_" gradientUnits="userSpaceOnUse" x1="501.0156" y1="840.1945" x2="501.0156" y2="158.4126" gradientTransform="matrix(1 0 0 -1 0 1002)">
				<stop  offset="0" style="stop-color:#78A6FC"/>
				<stop  offset="1" style="stop-color:#E274F1"/>
			</linearGradient>
			<path class="st2" d="M750.7,162c-30.5-0.4-61.1-0.1-91.6-0.2c-135.9,0-271.9-0.1-407.8,0c0.1,227.3-0.1,454.5,0,681.7
				c35.7-0.1,71.4,0.2,107.1-0.1c-0.3-46.8,0-93.7-0.1-140.5c0.1-56.3,0-112.6,0.1-168.8c39.2-0.2,78.5-0.1,117.7-0.1
				c50.3,0.1,100.6-0.2,150.9,0.1c0.2-37.1,0.1-74.1,0-111.2c-38.6,0-77.3,0-115.9,0c-50.8,0.1-101.7-0.2-152.5,0.2
				c-0.5-15.3,0-30.8-0.2-46.2c0-34.6,0-69.3,0-103.9c21.2-0.4,42.4-0.1,63.6-0.2c58.7,0,117.4,0,176.1,0
				c50.9-0.1,101.7,0.2,152.6-0.1C750.6,235.8,750.5,198.9,750.7,162z"/>
		</g>
	</g>
	<g>
		<g>
			
				<linearGradient id="SVGID_00000047778353636181855780000012442920043039670943_" gradientUnits="userSpaceOnUse" x1="564.0446" y1="709.45" x2="564.0446" y2="158.45" gradientTransform="matrix(1 0 0 -1 0 1002)">
				<stop  offset="0" style="stop-color:#78A6FC"/>
				<stop  offset="1" style="stop-color:#E274F1"/>
			</linearGradient>
			<path style="fill:url(#SVGID_00000047778353636181855780000012442920043039670943_);" d="M750.6,292.5c-124.3,0-248.7,0.1-373,0
				c-0.2,37,0,74.1-0.1,111.1c88.6,0,177.3,0,266,0c0,50.1,0.1,100.2,0,150.3c-88.7-0.1-177.3,0.1-265.9-0.1c-0.4,37-0.1,74-0.2,111
				c88.7,0.1,177.4,0.1,266.1,0c0,59.6,0,119.1,0,178.7c35.7,0,71.4,0,107.1,0C750.6,659.8,750.7,476.2,750.6,292.5z"/>
		</g>
	</g>
	<g>
		<g>
			
				<linearGradient id="SVGID_00000129205704548732690700000007365453127762196635_" gradientUnits="userSpaceOnUse" x1="482.1935" y1="303.35" x2="482.1935" y2="275.65" gradientTransform="matrix(1 0 0 -1 0 1002)">
				<stop  offset="0" style="stop-color:#CA7FF3"/>
				<stop  offset="1" style="stop-color:#C681F4"/>
			</linearGradient>
			<path style="fill:url(#SVGID_00000129205704548732690700000007365453127762196635_);" d="M495.5,698.6c-8.9,0.4-17.8,0-26.7,0.2
				c-0.6,9.1-0.2,18.4-0.1,27.5c9-0.5,18.1-0.1,27.1-0.2C495.6,716.9,496.2,707.7,495.5,698.6z"/>
		</g>
	</g>
	<g>
		<g>
			
				<linearGradient id="SVGID_00000132076466790043373180000001127547319895218601_" gradientUnits="userSpaceOnUse" x1="524.7022" y1="303.25" x2="524.7022" y2="275.85" gradientTransform="matrix(1 0 0 -1 0 1002)">
				<stop  offset="0" style="stop-color:#CA7FF3"/>
				<stop  offset="1" style="stop-color:#C681F4"/>
			</linearGradient>
			<path style="fill:url(#SVGID_00000132076466790043373180000001127547319895218601_);" d="M538.3,698.7c-9.1,0-18.2,0.1-27.3,0
				c0.1,9.2,0.1,18.3,0,27.4c9.1-0.2,18.2-0.1,27.3-0.1C538.3,716.9,538.4,707.8,538.3,698.7z"/>
		</g>
	</g>
	<g>
		<g>
			
				<linearGradient id="SVGID_00000176761670712778179470000011848536646468124094_" gradientUnits="userSpaceOnUse" x1="448.33" y1="275.9652" x2="448.33" y2="248.55" gradientTransform="matrix(1 0 0 -1 0 1002)">
				<stop  offset="0" style="stop-color:#D37BF3"/>
				<stop  offset="1" style="stop-color:#CF7DF3"/>
			</linearGradient>
			<path style="fill:url(#SVGID_00000176761670712778179470000011848536646468124094_);" d="M462,726c-9.2,0.1-18.4-0.2-27.5,0.2
				c0.5,9,0.2,18.1,0.1,27c9.1,0.3,18.2-0.1,27.3,0.2C462.2,744.3,462.1,735.1,462,726z"/>
		</g>
	</g>
	<g>
		<g>
			
				<linearGradient id="SVGID_00000134952861310077220200000011315356237430023858_" gradientUnits="userSpaceOnUse" x1="556.5925" y1="275.9655" x2="556.5925" y2="248.45" gradientTransform="matrix(1 0 0 -1 0 1002)">
				<stop  offset="0" style="stop-color:#D37BF3"/>
				<stop  offset="1" style="stop-color:#CF7DF3"/>
			</linearGradient>
			<path style="fill:url(#SVGID_00000134952861310077220200000011315356237430023858_);" d="M570.7,726.1c-9.5-0.1-18.9-0.2-28.3,0
				c0.2,0.3,0.7,1,0.9,1.3c0.3,8.7-0.3,17.4,0.3,26.1c9-0.3,18-0.1,27-0.1C570.8,744.3,570.7,735.2,570.7,726.1z"/>
		</g>
	</g>
	<g>
		<g>
			
				<linearGradient id="SVGID_00000100374392432060118310000008537617250155517316_" gradientUnits="userSpaceOnUse" x1="502.5515" y1="158.1249" x2="502.5515" y2="241.7701" gradientTransform="matrix(1 0 0 -1 0 1002)">
				<stop  offset="0" style="stop-color:#E174F1"/>
				<stop  offset="1" style="stop-color:#D57AF2"/>
			</linearGradient>
			<path style="fill:url(#SVGID_00000100374392432060118310000008537617250155517316_);" d="M556.9,788.3c-4.2,0.1-8.3,0-12.5,0.1
				c-0.3-4.9-0.2-9.9-0.2-14.8c-4.7,0-9.4,0-14.2,0c-0.2-4.4-0.1-8.8,0-13.1c-18.2-0.1-36.5-0.4-54.7-0.3c-0.1,4.3,0.1,8.6-0.1,12.9
				c-4.6,0.9-9.4,0.1-14.1,0.3c0,4.9,0.1,9.8-0.1,14.7c-4.3-0.1-8.5-0.1-12.8,0.1c-0.2,10.2-0.1,20.5-0.1,30.7c0,3.5-0.2,7,0.4,10.5
				c4.5-0.5,9-0.2,13.5-0.3c0.1,4.9,0,9.8,0.1,14.7c9.2,0,18.3,0.1,27.5-0.1c0-4.9-0.2-9.7,0.1-14.6c8.7,0.1,17.4,0,26.1,0.1
				c0.2,4.8-0.2,9.6,0.1,14.4c9.2-0.3,18.3,0.2,27.4-0.2c-0.2-4.7-0.2-9.5-0.1-14.2c4.6-0.1,9.2-0.1,13.7,0
				C557,815.5,557,801.9,556.9,788.3z"/>
		</g>
	</g>
</g>
</svg>
