<?xml version="1.0" encoding="utf-8"?>
<!-- Generator: Adobe Illustrator 25.4.1, SVG Export Plug-In . SVG Version: 6.00 Build 0)  -->
<svg version="1.1" id="Capa_1" xmlns="http://www.w3.org/2000/svg" xmlns:xlink="http://www.w3.org/1999/xlink" x="0px" y="0px"
	 viewBox="0 0 1000 1000" style="enable-background:new 0 0 1000 1000;" xml:space="preserve">
<style type="text/css">
	.st0{fill:#FFFFFF;}
	.st1{fill:#020202;}
</style>
<rect x="0.4" y="2.7" class="st0" width="1000" height="1000"/>
<path class="st1" d="M796.8,703.8c-0.1-196.3,0-392.7-0.1-589c-196.6-0.1-393.1-0.1-589.7,0c-0.1,257.3,0,514.5,0,771.9
	c59.3,0.2,118.6,0.1,177.9,0.1c137.3-0.1,274.5,0,411.8-0.1C796.9,825.7,796.8,764.8,796.8,703.8z M435.5,754.1
	c0-9.1,0.3-18.1-0.2-27.1c9.1-0.4,18.3-0.1,27.6-0.1c0,9.1,0.2,18.3-0.1,27.4C453.7,754,444.6,754.4,435.5,754.1z M557.7,830
	c-4.6-0.1-9.2-0.1-13.7,0c-0.1,4.7-0.1,9.5,0.1,14.2c-9.2,0.4-18.3,0-27.4,0.2c-0.2-4.8,0.1-9.6-0.1-14.4c-8.7-0.1-17.4,0-26.1-0.1
	c-0.3,4.8-0.1,9.7-0.1,14.6c-9.1,0.2-18.3,0.1-27.5,0.1c-0.1-4.9,0-9.8-0.1-14.7c-4.5,0.1-9-0.2-13.5,0.3c-0.6-3.5-0.4-7-0.4-10.5
	c0.1-10.3,0-20.5,0.1-30.7c4.2-0.2,8.5-0.2,12.8-0.1c0.2-4.9,0-9.8,0.1-14.7c4.7-0.2,9.5,0.6,14.1-0.3c0.1-4.3,0-8.6,0.1-12.9
	c18.3-0.1,36.5,0.2,54.7,0.3c-0.1,4.4-0.2,8.7,0,13.1c4.7,0,9.4,0,14.2,0c0,4.9-0.1,9.9,0.2,14.8c4.2-0.1,8.3,0,12.5-0.1
	C557.8,802.8,557.8,816.4,557.7,830z M496.6,726.9c-9,0.2-18.1-0.2-27.1,0.2c-0.1-9.2-0.5-18.4,0.1-27.5c8.9-0.2,17.8,0.3,26.7-0.2
	C497,708.6,496.4,717.7,496.6,726.9z M511.8,699.5c9.1,0.1,18.2,0.1,27.3,0.1c0.1,9.1,0,18.2,0,27.3c-9.1,0-18.2-0.1-27.3,0.1
	C511.9,717.8,511.9,708.7,511.8,699.5z M571.4,754.2c-9,0-18-0.1-27,0.1c-0.6-8.7,0-17.4-0.3-26.1c-0.2-0.3-0.7-1-0.9-1.3
	c9.4-0.2,18.8-0.1,28.3,0C571.4,736,571.6,745.1,571.4,754.2z M751.4,844.3c-35.7,0-71.4,0-107.1,0c0-59.6,0-119.1,0-178.7
	c-88.7,0.1-177.4,0.2-266.1,0c0.2-37-0.1-74,0.2-111c88.6,0.2,177.3,0,265.9,0.1c0.1-50.1,0-100.2,0-150.3c-88.7,0.1-177.3,0-266,0
	c0-37.1-0.2-74.1,0.1-111.1c124.3,0.1,248.7,0,373,0C751.5,476.9,751.4,660.6,751.4,844.3z M751.6,273.5
	c-50.9,0.3-101.8,0-152.6,0.1c-58.7,0-117.4,0-176.1,0c-21.2,0.1-42.4-0.2-63.6,0.2c0,34.6,0,69.3,0,103.9
	c0.1,15.4-0.4,30.8,0.2,46.2c50.8-0.4,101.7-0.1,152.5-0.2c38.6,0,77.3,0,115.9,0c0.2,37.1,0.2,74.1,0,111.2
	c-50.3-0.3-100.6,0-150.9-0.1c-39.3,0.1-78.5-0.1-117.7,0.1c-0.2,56.3-0.1,112.5-0.1,168.8c0.1,46.8-0.2,93.7,0.1,140.5
	c-35.7,0.2-71.4-0.1-107.1,0.1c-0.2-227.2-0.1-454.5-0.1-681.7c136-0.1,271.9,0,407.9,0c30.6,0.1,61.1-0.2,91.6,0.2
	C751.4,199.7,751.5,236.6,751.6,273.5z"/>
</svg>
